<svg width="300" height="300" viewBox="0 0 300 300" fill="none" xmlns="http://www.w3.org/2000/svg">
<g id="standing 1">
<g id="man-standing">
<path id="Vector" d="M246.572 260.82C273.56 260.82 295.437 257.981 295.437 254.479C295.437 250.977 273.56 248.138 246.572 248.138C219.585 248.138 197.707 250.977 197.707 254.479C197.707 257.981 219.585 260.82 246.572 260.82Z" fill="#E6E6E6"/>
<path id="Vector_2" d="M249.268 232.4C249.268 232.4 251.893 241.444 253.644 243.778C255.394 246.112 256.853 249.905 255.978 250.488C255.102 251.072 253.352 258.074 255.686 258.365C258.02 258.657 263.271 250.78 263.563 248.154C263.855 245.529 265.022 236.193 265.022 236.193C265.022 236.193 267.064 228.024 263.855 227.44C260.646 226.857 255.686 226.565 255.686 226.565L249.268 232.4Z" fill="#2F2E41"/>
<path id="Vector_3" d="M237.014 242.028C237.014 242.028 233.221 251.947 232.346 252.53C231.471 253.114 228.262 258.365 234.68 258.365C241.099 258.365 244.6 256.615 244.6 256.615L246.642 254.281C246.642 254.281 246.642 248.154 246.058 247.279C245.475 246.404 246.058 242.028 246.058 242.028H237.014Z" fill="#2F2E41"/>
<path id="Vector_4" d="M211.049 151.295C211.049 151.295 206.381 182.803 210.465 193.014C214.55 203.225 218.634 206.143 218.634 206.143L249.559 235.026C249.559 235.026 259.187 230.066 258.312 226.857C258.312 226.857 256.269 225.69 255.978 224.815C255.686 223.939 251.893 223.648 251.893 223.648C251.893 223.648 250.143 221.605 250.143 220.438C250.143 219.271 234.972 198.557 230.012 197.099C230.012 197.099 227.387 193.889 227.678 193.306C227.97 192.722 226.803 190.68 226.803 190.68L229.721 179.302L248.101 176.385C248.101 176.385 255.686 149.544 249.267 147.502C242.849 145.46 211.049 151.295 211.049 151.295Z" fill="#2F2E41"/>
<path id="Vector_5" d="M247.517 171.717L248.101 176.385C248.101 176.385 248.101 188.638 247.517 189.805C246.934 190.972 246.642 192.722 247.517 193.889C248.392 195.056 249.851 197.974 249.268 199.141C248.684 200.308 250.434 233.275 248.101 235.609C245.767 237.943 246.642 240.861 246.934 241.152C247.225 241.444 246.642 242.611 246.642 242.611C246.642 242.611 234.68 244.653 235.555 242.611C236.431 240.569 236.431 239.402 237.014 238.818C237.598 238.235 237.014 237.36 237.014 237.36C237.014 237.36 237.889 228.024 237.014 227.44C236.139 226.857 233.513 198.849 233.513 198.557C233.513 198.266 232.638 197.682 232.638 196.515C232.638 195.348 232.638 191.556 231.179 190.972C229.721 190.389 230.012 176.093 230.012 176.093L247.517 171.717Z" fill="#2F2E41"/>
<path id="Vector_6" d="M226.803 67.5634C226.803 67.5634 227.97 76.3158 231.471 78.0662C234.972 79.8167 237.306 80.692 237.306 80.692L234.388 90.9031L233.221 99.6555H219.801L212.507 93.8205L214.841 84.1929L216.008 82.4424C216.008 82.4424 217.467 76.024 216.3 73.9818C215.133 71.9396 226.803 67.5634 226.803 67.5634Z" fill="#FFB9B9"/>
<path id="Vector_7" d="M220.968 88.8609L223.01 92.6536C223.01 92.6536 224.469 87.4021 226.511 86.5269C228.554 85.6516 233.513 84.1929 233.513 83.0259C233.513 81.859 233.221 78.9415 234.388 78.9415C235.555 78.9415 246.934 82.4424 248.684 83.6094C250.434 84.7764 250.726 85.9434 250.726 85.9434L247.517 119.494C247.517 119.494 252.185 135.248 250.726 141.375C249.268 147.502 248.101 148.377 244.6 149.252C241.099 150.128 243.141 147.21 232.93 150.128C222.719 153.045 216.3 152.17 213.966 152.17C211.632 152.17 210.174 153.337 209.59 153.629C209.007 153.92 209.298 152.17 211.341 149.544C213.383 146.918 212.507 142.542 212.507 142.542C212.507 142.542 210.173 134.957 211.632 132.039C213.091 129.122 215.133 125.329 213.383 124.162C211.632 122.995 209.298 114.243 209.298 114.243L202.88 91.4866L216.008 82.4424C216.008 82.4424 215.425 86.5269 217.467 87.4021C219.509 88.2774 220.968 88.8609 220.968 88.8609Z" fill="#2979FF"/>
<path id="Vector_8" d="M204.63 91.1948H202.88C202.88 91.1948 199.962 96.1545 199.962 99.6555C199.962 103.156 201.421 122.995 201.421 122.995L209.882 131.748L211.924 125.037L212.507 110.158L204.63 91.1948Z" fill="#2979FF"/>
<path id="Vector_9" d="M209.298 122.12C209.298 122.12 199.671 119.494 199.962 123.579C200.254 127.663 201.713 132.623 206.381 133.79C211.049 134.957 212.507 128.538 212.507 128.538C212.507 128.538 213.091 122.703 209.298 122.12Z" fill="#2979FF"/>
<path id="Vector_10" d="M245.475 135.54C245.475 135.54 244.891 148.961 241.39 150.419L249.851 152.462C249.851 152.462 253.935 138.458 253.352 137.874C252.768 137.291 245.475 135.54 245.475 135.54Z" fill="#FFB9B9"/>
<path id="Vector_11" d="M195.434 108.223L200.445 106.034C200.632 105.953 200.844 105.948 201.034 106.023C201.224 106.097 201.377 106.244 201.458 106.432L207.028 119.182C207.128 119.411 207.133 119.67 207.042 119.902C206.951 120.134 206.772 120.321 206.543 120.421L201.845 122.473C201.617 122.573 201.358 122.578 201.126 122.487C200.893 122.396 200.707 122.216 200.607 121.987L195.037 109.237C194.996 109.144 194.975 109.044 194.973 108.943C194.971 108.842 194.989 108.742 195.026 108.648C195.063 108.553 195.118 108.468 195.188 108.395C195.258 108.322 195.342 108.263 195.434 108.223Z" fill="#2F2E41"/>
<path id="Vector_12" opacity="0.1" d="M195.434 108.223L200.445 106.034C200.632 105.953 200.844 105.948 201.034 106.023C201.224 106.097 201.377 106.244 201.458 106.432L207.028 119.182C207.128 119.411 207.133 119.67 207.042 119.902C206.951 120.134 206.772 120.321 206.543 120.421L201.845 122.473C201.617 122.573 201.358 122.578 201.126 122.487C200.893 122.396 200.707 122.216 200.607 121.987L195.037 109.237C194.996 109.144 194.975 109.044 194.973 108.943C194.971 108.842 194.989 108.742 195.026 108.648C195.063 108.553 195.118 108.468 195.188 108.395C195.258 108.322 195.342 108.263 195.434 108.223Z" fill="black"/>
<path id="Vector_13" d="M195.719 108.874L200.087 106.966C200.274 106.884 200.486 106.88 200.676 106.954C200.866 107.029 201.019 107.176 201.101 107.363L206.386 119.463C206.486 119.691 206.491 119.95 206.4 120.182C206.309 120.415 206.13 120.601 205.901 120.701L201.845 122.473C201.617 122.573 201.358 122.578 201.126 122.487C200.893 122.396 200.707 122.216 200.607 121.987L195.321 109.888C195.24 109.7 195.235 109.489 195.31 109.298C195.384 109.108 195.531 108.956 195.719 108.874Z" fill="#FDFDFF"/>
<path id="Vector_14" d="M199.736 114.035C200.445 113.725 200.766 112.891 200.451 112.173C200.137 111.454 199.308 111.122 198.599 111.432C197.889 111.742 197.569 112.576 197.883 113.295C198.197 114.013 199.027 114.345 199.736 114.035Z" fill="#F2F2F2"/>
<path id="Vector_15" opacity="0.1" d="M247.663 89.882L249.559 87.1104C249.559 87.1104 256.561 97.905 255.978 105.199C255.394 112.492 254.811 112.784 254.811 113.951C254.811 115.118 253.352 115.118 254.811 116.577C256.269 118.035 258.312 120.078 257.145 121.245C255.978 122.412 255.102 122.412 255.394 123.87C255.581 124.93 255.678 126.004 255.686 127.08C255.686 127.08 253.206 131.893 252.331 131.893C251.456 131.893 243.141 139.625 243.141 138.749C243.141 137.874 244.016 131.748 244.016 130.872C244.016 129.997 244.308 127.08 244.891 126.204C245.475 125.329 245.475 125.621 244.891 124.746C244.308 123.87 244.308 124.746 244.308 123.87C244.308 122.995 244.6 121.828 243.724 121.536C242.849 121.245 241.974 121.536 242.557 120.078C243.141 118.619 242.557 117.452 242.266 117.452C241.974 117.452 240.515 117.16 241.39 116.285C242.266 115.41 239.64 98.4885 239.64 98.4885C239.64 98.4885 240.077 94.2582 247.663 89.882Z" fill="black"/>
<path id="Vector_16" d="M246.058 83.6094L251.018 85.9434C251.018 85.9434 258.02 96.738 257.436 104.032C256.853 111.325 256.269 111.617 256.269 112.784C256.269 113.951 254.811 113.951 256.269 115.41C257.728 116.868 259.77 118.911 258.603 120.078C257.436 121.245 256.561 121.245 256.853 122.703C257.039 123.763 257.137 124.837 257.145 125.913C257.145 125.913 254.519 139.916 253.644 139.916C252.768 139.916 244.6 138.458 244.6 137.582C244.6 136.707 245.475 130.581 245.475 129.705C245.475 128.83 245.767 125.913 246.35 125.037C246.934 124.162 246.934 124.454 246.35 123.579C245.767 122.703 245.767 123.579 245.767 122.703C245.767 121.828 246.058 120.661 245.183 120.369C244.308 120.078 243.433 120.369 244.016 118.911C244.6 117.452 244.016 116.285 243.724 116.285C243.433 116.285 241.974 115.993 242.849 115.118C243.724 114.243 241.099 97.3215 241.099 97.3215C241.099 97.3215 238.473 87.9856 246.058 83.6094Z" fill="#2979FF"/>
<path id="Vector_17" d="M201.789 124.204C201.517 124.276 201.229 124.252 200.973 124.136C200.717 124.02 200.508 123.82 200.382 123.569C199.042 120.888 195.409 113.026 198.795 112.784C201.919 112.561 204.702 118.653 205.838 121.53C205.91 121.713 205.943 121.909 205.934 122.105C205.925 122.301 205.874 122.493 205.786 122.669C205.697 122.844 205.572 122.999 205.419 123.122C205.266 123.246 205.089 123.335 204.899 123.385L201.789 124.204Z" fill="#FFB9B9"/>
<path id="Vector_18" d="M218.634 75.7323C224.596 75.7323 229.429 70.8994 229.429 64.9377C229.429 58.976 224.596 54.1431 218.634 54.1431C212.672 54.1431 207.84 58.976 207.84 64.9377C207.84 70.8994 212.672 75.7323 218.634 75.7323Z" fill="#FFB9B9"/>
<path id="Vector_19" d="M214.668 58.7208C213.321 59.1856 211.93 59.5138 210.518 59.7004C209.455 59.8663 208.211 59.9513 207.463 59.177C206.73 58.4172 206.849 57.1497 207.349 56.2197C207.849 55.2897 208.65 54.5606 209.251 53.6924C210.197 52.327 210.755 50.5167 212.266 49.8288C212.893 49.589 213.557 49.4649 214.228 49.4624C218.151 49.2123 222.233 48.987 225.866 50.488C227.231 51.008 228.44 51.8684 229.379 52.9873C229.994 53.8113 230.468 54.7312 230.783 55.7099C231.754 58.5897 231.969 61.6704 231.41 64.6575C230.85 67.6445 229.534 70.4381 227.586 72.7712C226.262 71.5785 226.838 68.8224 225.163 68.2146C224.613 68.0152 223.992 68.154 223.429 67.9962C221.66 67.5001 221.749 64.7661 220.276 63.6676C219.955 63.4945 219.67 63.2604 219.438 62.9784C219.308 62.7079 219.252 62.4082 219.274 62.1092C219.264 61.085 219.745 58.4833 218.768 57.7813C217.773 57.0667 215.623 58.3757 214.668 58.7208Z" fill="#2F2E41"/>
</g>
<g id="mid-right">
<path id="Vector_20" d="M23.1256 96.6632H153.95V139.61H148.994V150.843L137.762 139.61H23.1256V96.6632Z" fill="#E6E6E6"/>
<path id="Vector_21" d="M150.316 100.845H26.7595V135.203H150.316V100.845Z" fill="#F5F59C"/>
<path id="Vector_22" d="M96.1845 110.876H36.6953V112.682H96.1845V110.876Z" fill="#8390E0"/>
<path id="Vector_23" d="M140.38 117.122H36.6953V118.927H140.38V117.122Z" fill="#E6E6E6"/>
<path id="Vector_24" d="M140.278 123.367H36.6953V125.172H140.278V123.367Z" fill="#2F2E41"/>
</g>
<g id="bottom-left">
<path id="Vector_25" d="M130.824 154.146H0V197.094H4.95549V208.326L16.1877 197.094H130.824V154.146Z" fill="#E6E6E6"/>
<path id="Vector_26" d="M127.19 158.329H3.63402V192.687H127.19V158.329Z" fill="white"/>
<path id="Vector_27" d="M74.0501 168.69H14.5609V170.495H74.0501V168.69Z" fill="#8390E0"/>
<path id="Vector_28" d="M118.245 174.935H14.5609V176.741H118.245V174.935Z" fill="#E6E6E6"/>
<path id="Vector_29" d="M118.144 181.181H14.5609V182.986H118.144V181.181Z" fill="#E6E6E6"/>
</g>
<g id="top-left">
<g id="Left">
<path id="Vector_30" d="M130.824 39.1797H0V82.1269H4.95549V93.3595L16.1877 82.1269H130.824V39.1797Z" fill="#E6E6E6"/>
<path id="Vector_31" d="M127.19 43.362H3.63402V77.7199H127.19V43.362Z" fill="white"/>
<path id="Vector_32" d="M74.0501 53.7234H14.5609V55.5287H74.0501V53.7234Z" fill="#8390E0"/>
<path id="Vector_33" d="M118.245 59.9686H14.5609V61.774H118.245V59.9686Z" fill="#E6E6E6"/>
<path id="Vector_34" d="M118.144 66.2139H14.5609V68.0192H118.144V66.2139Z" fill="#E6E6E6"/>
</g>
</g>
</g>
</svg>
